<svg width="180" height="180" viewBox="0 0 180 180" fill="none" xmlns="http://www.w3.org/2000/svg">
  <defs>
    <linearGradient id="bg" x1="0" y1="0" x2="1" y2="1">
      <stop offset="0%" stop-color="#2563eb"/>
      <stop offset="100%" stop-color="#0f3f92"/>
    </linearGradient>
  </defs>
  <rect width="180" height="180" rx="40" fill="url(#bg)"/>

  <!-- Open book -->
  <path d="M90 114 C 78 105 58 102 34 106 L 34 134 C 58 130 78 133 90 142 C 102 133 122 130 146 134 L 146 106 C 122 102 102 105 90 114 Z"
        fill="#ffffff"/>

  <!-- Rising road + arrow -->
  <path d="M 66 142
           C 78 104 96 72 120 44
           L 110 37
           L 150 22
           L 149 64
           L 138 56
           C 114 86 102 112 98 146
           C 90 155 72 153 66 142
           Z"
        fill="#ffffff" stroke="#173e9e" stroke-width="8" paint-order="stroke"/>
  <path d="M 81 132 C 93 102 106 78 126 54" stroke="#2563eb" stroke-width="7" stroke-linecap="round" stroke-dasharray="13 12" fill="none"/>
</svg>
