<svg width="1024" height="1024" viewBox="0 0 1024 1024" fill="none" xmlns="http://www.w3.org/2000/svg" role="img" aria-label="CareMetric Train">
  <!-- Emblem: open book, training screen with medical cross, rising road-arrow -->
  <g transform="translate(91.6 -0.4) scale(1.6)">
    <defs>
        <linearGradient id="cmtRoad" x1="0.15" y1="1" x2="0.85" y2="0">
          <stop offset="0%" stop-color="#3b82f6"/>
          <stop offset="55%" stop-color="#2563eb"/>
          <stop offset="100%" stop-color="#1d4ed8"/>
        </linearGradient>
        <linearGradient id="cmtFrame" x1="0" y1="0" x2="1" y2="1">
          <stop offset="0%" stop-color="#2563eb"/>
          <stop offset="100%" stop-color="#1e40af"/>
        </linearGradient>
      </defs>
    
      <!-- Monitor / screen -->
      <rect x="88" y="66" width="336" height="252" rx="38" fill="#ffffff" stroke="url(#cmtFrame)" stroke-width="18"/>
    
      <!-- Medical cross -->
      <path d="M150 112 h44 v46 h46 v44 h-46 v46 h-44 v-46 h-46 v-44 h46 Z" fill="#2563eb"/>
      <rect x="118" y="262" width="96" height="11" rx="5.5" fill="#60a5fa"/>
      <rect x="118" y="284" width="72" height="11" rx="5.5" fill="#93c5fd"/>
    
      <!-- Video panel with play button -->
      <rect x="302" y="106" width="94" height="88" rx="12" fill="#dbeafe"/>
      <circle cx="349" cy="150" r="27" fill="#2563eb"/>
      <path d="M341 136 l24 14 -24 14 Z" fill="#ffffff"/>
    
      <!-- Checklist panel -->
      <rect x="294" y="212" width="112" height="76" rx="12" fill="#e4eefc"/>
      <path d="M308 234 l7 8 12 -14" stroke="#2563eb" stroke-width="7" stroke-linecap="round" stroke-linejoin="round" fill="none"/>
      <rect x="336" y="230" width="58" height="9" rx="4.5" fill="#93c5fd"/>
      <path d="M308 264 l7 8 12 -14" stroke="#2563eb" stroke-width="7" stroke-linecap="round" stroke-linejoin="round" fill="none"/>
      <rect x="336" y="260" width="58" height="9" rx="4.5" fill="#93c5fd"/>
    
      <!-- Open book -->
      <path d="M256 336 C 214 306 148 298 64 314 L 64 376 C 148 362 214 370 256 404 C 298 370 364 362 448 376 L 448 314 C 364 298 298 306 256 336 Z"
            fill="#ffffff" stroke="url(#cmtFrame)" stroke-width="17" stroke-linejoin="round"/>
      <path d="M86 356 C 154 348 212 356 252 382" stroke="#2563eb" stroke-width="9" stroke-linecap="round" fill="none"/>
      <path d="M426 356 C 358 348 300 356 260 382" stroke="#2563eb" stroke-width="9" stroke-linecap="round" fill="none"/>
    
      <!-- Rising road + arrow -->
      <path d="M 210 394
               C 254 316 310 216 409 106
               L 385 92
               L 466 46
               L 469 140
               L 445 126
               C 366 232 318 316 306 400
               C 282 418 234 418 210 394
               Z"
            fill="url(#cmtRoad)"/>
      <path d="M 258 384 C 302 312 352 232 420 136" stroke="#ffffff" stroke-width="11" stroke-linecap="round" stroke-dasharray="26 26" fill="none"/>
  </g>

  <!-- Wordmark: CareMetric (blue) Train (orange), Nunito ExtraBold outlines -->
  <path d="M100.61 831.29Q87.19 831.29 77.66 826Q68.12 820.70 63 811.11Q57.88 801.52 57.88 788.45Q57.88 778.69 60.77 770.86Q63.65 763.03 69.18 757.44Q74.71 751.85 82.66 748.79Q90.60 745.73 100.61 745.73Q106.49 745.73 112.55 747.20Q118.61 748.67 123.09 751.38Q126.03 753.03 127.09 755.50Q128.15 757.97 127.73 760.44Q127.32 762.92 125.73 764.68Q124.15 766.45 121.79 766.92Q119.44 767.39 116.50 765.86Q112.96 763.74 109.08 762.80Q105.20 761.86 101.20 761.86Q93.31 761.86 87.95 764.98Q82.60 768.09 79.89 773.98Q77.19 779.86 77.19 788.45Q77.19 796.93 79.89 802.93Q82.60 808.93 87.95 812.05Q93.31 815.17 101.20 815.17Q104.96 815.17 108.90 814.23Q112.85 813.29 116.50 811.29Q119.56 809.76 121.97 810.17Q124.38 810.58 125.97 812.29Q127.56 813.99 127.97 816.35Q128.38 818.70 127.44 821.06Q126.50 823.41 123.91 825.06Q119.56 828 113.20 829.65Q106.84 831.29 100.61 831.29M156.63 831.29Q150.27 831.29 145.21 828.82Q140.15 826.35 137.33 822.11Q134.50 817.88 134.50 812.58Q134.50 806.23 137.80 802.52Q141.09 798.81 148.51 797.22Q155.92 795.63 168.16 795.63L174.40 795.63L174.40 804.81L168.28 804.81Q162.28 804.81 158.57 805.46Q154.86 806.11 153.27 807.64Q151.69 809.17 151.69 811.88Q151.69 815.17 153.98 817.29Q156.28 819.41 160.63 819.41Q164.04 819.41 166.69 817.82Q169.34 816.23 170.87 813.46Q172.40 810.70 172.40 807.17L172.40 793.63Q172.40 788.45 170.05 786.28Q167.69 784.10 162.04 784.10Q158.86 784.10 155.16 784.87Q151.45 785.63 146.98 787.40Q144.39 788.57 142.39 787.93Q140.39 787.28 139.33 785.57Q138.27 783.86 138.27 781.81Q138.27 779.75 139.45 777.80Q140.62 775.86 143.33 774.92Q148.86 772.68 153.74 771.86Q158.63 771.04 162.75 771.04Q171.81 771.04 177.64 773.68Q183.46 776.33 186.40 781.81Q189.35 787.28 189.35 795.87L189.35 822Q189.35 826.35 187.23 828.71Q185.11 831.06 181.11 831.06Q177.11 831.06 174.93 828.71Q172.75 826.35 172.75 822L172.75 817.64L173.58 818.35Q172.87 822.35 170.57 825.23Q168.28 828.12 164.75 829.71Q161.22 831.29 156.63 831.29M211.83 831.06Q207.35 831.06 205 828.71Q202.65 826.35 202.65 822L202.65 780.22Q202.65 775.86 204.94 773.57Q207.24 771.27 211.36 771.27Q215.59 771.27 217.83 773.57Q220.06 775.86 220.06 780.22L220.06 786.34L218.89 786.34Q220.30 779.27 225.13 775.39Q229.95 771.51 237.60 771.04Q240.54 770.80 242.13 772.51Q243.72 774.21 243.84 778.10Q244.07 781.75 242.37 783.86Q240.66 785.98 236.66 786.45L233.95 786.69Q227.24 787.28 224.01 790.57Q220.77 793.87 220.77 800.11L220.77 822Q220.77 826.35 218.48 828.71Q216.18 831.06 211.83 831.06M280.09 831.29Q269.85 831.29 262.49 827.59Q255.14 823.88 251.19 817.11Q247.25 810.35 247.25 801.17Q247.25 792.22 251.02 785.45Q254.78 778.69 261.55 774.86Q268.32 771.04 276.91 771.04Q283.15 771.04 288.21 773.10Q293.27 775.16 296.92 778.98Q300.57 782.81 302.45 788.28Q304.33 793.75 304.33 800.46Q304.33 802.70 302.92 803.81Q301.51 804.93 298.80 804.93L261.85 804.93L261.85 795.75L291.50 795.75L289.62 797.40Q289.62 792.57 288.21 789.34Q286.80 786.10 284.15 784.45Q281.50 782.81 277.62 782.81Q273.26 782.81 270.20 784.81Q267.14 786.81 265.49 790.57Q263.85 794.34 263.85 799.64L263.85 800.58Q263.85 809.52 268.02 813.76Q272.20 818 280.44 818Q283.27 818 286.91 817.29Q290.56 816.58 293.74 815.05Q296.45 813.76 298.57 814.17Q300.68 814.58 301.86 816.11Q303.04 817.64 303.21 819.64Q303.39 821.64 302.33 823.59Q301.27 825.53 298.80 826.82Q294.80 829.06 289.80 830.18Q284.80 831.29 280.09 831.29M324.69 831.06Q320.69 831.06 318.57 828.82Q316.45 826.59 316.45 822.59L316.45 754.44Q316.45 750.44 318.75 748.20Q321.04 745.97 325.05 745.97Q328.58 745.97 330.64 747.32Q332.70 748.67 334.46 751.97L361.65 801.64L357.65 801.64L384.83 751.97Q386.60 748.67 388.66 747.32Q390.72 745.97 394.13 745.97Q398.13 745.97 400.31 748.20Q402.49 750.44 402.49 754.44L402.49 822.59Q402.49 826.59 400.37 828.82Q398.25 831.06 394.25 831.06Q390.25 831.06 388.07 828.82Q385.89 826.59 385.89 822.59L385.89 774.92L388.48 774.92L366.59 814.11Q365.18 816.35 363.59 817.47Q362 818.58 359.41 818.58Q356.82 818.58 355.18 817.41Q353.53 816.23 352.23 814.11L330.11 774.80L332.93 774.80L332.93 822.59Q332.93 826.59 330.87 828.82Q328.81 831.06 324.69 831.06M447.80 831.29Q437.56 831.29 430.20 827.59Q422.85 823.88 418.91 817.11Q414.96 810.35 414.96 801.17Q414.96 792.22 418.73 785.45Q422.50 778.69 429.26 774.86Q436.03 771.04 444.62 771.04Q450.86 771.04 455.92 773.10Q460.98 775.16 464.63 778.98Q468.28 782.81 470.16 788.28Q472.04 793.75 472.04 800.46Q472.04 802.70 470.63 803.81Q469.22 804.93 466.51 804.93L429.56 804.93L429.56 795.75L459.22 795.75L457.33 797.40Q457.33 792.57 455.92 789.34Q454.51 786.10 451.86 784.45Q449.21 782.81 445.33 782.81Q440.97 782.81 437.91 784.81Q434.85 786.81 433.21 790.57Q431.56 794.34 431.56 799.64L431.56 800.58Q431.56 809.52 435.74 813.76Q439.91 818 448.15 818Q450.98 818 454.63 817.29Q458.27 816.58 461.45 815.05Q464.16 813.76 466.28 814.17Q468.40 814.58 469.57 816.11Q470.75 817.64 470.93 819.64Q471.10 821.64 470.04 823.59Q468.98 825.53 466.51 826.82Q462.51 829.06 457.51 830.18Q452.51 831.29 447.80 831.29M510.41 831.29Q502.29 831.29 496.82 828.59Q491.35 825.88 488.70 820.70Q486.05 815.52 486.05 807.64L486.05 785.51L481.11 785.51Q477.81 785.51 475.99 783.75Q474.16 781.98 474.16 778.92Q474.16 775.63 475.99 773.92Q477.81 772.21 481.11 772.21L486.05 772.21L486.05 763.27Q486.05 758.80 488.40 756.50Q490.76 754.21 494.99 754.21Q499.35 754.21 501.58 756.50Q503.82 758.80 503.82 763.27L503.82 772.21L515 772.21Q518.30 772.21 520.06 773.92Q521.83 775.63 521.83 778.92Q521.83 781.98 520.06 783.75Q518.30 785.51 515 785.51L503.82 785.51L503.82 806.93Q503.82 811.88 506.12 814.35Q508.41 816.82 513.47 816.82Q515.24 816.82 516.77 816.47Q518.30 816.11 519.59 815.99Q521.24 815.88 522.30 817Q523.36 818.11 523.36 821.88Q523.36 824.70 522.42 826.82Q521.47 828.94 519.12 829.88Q517.59 830.47 514.94 830.88Q512.29 831.29 510.41 831.29M538.77 831.06Q534.30 831.06 531.95 828.71Q529.59 826.35 529.59 822L529.59 780.22Q529.59 775.86 531.89 773.57Q534.18 771.27 538.30 771.27Q542.54 771.27 544.78 773.57Q547.01 775.86 547.01 780.22L547.01 786.34L545.84 786.34Q547.25 779.27 552.07 775.39Q556.90 771.51 564.55 771.04Q567.49 770.80 569.08 772.51Q570.67 774.21 570.79 778.10Q571.02 781.75 569.32 783.86Q567.61 785.98 563.61 786.45L560.90 786.69Q554.19 787.28 550.96 790.57Q547.72 793.87 547.72 800.11L547.72 822Q547.72 826.35 545.42 828.71Q543.13 831.06 538.77 831.06M587.03 830.94Q582.67 830.94 580.38 828.41Q578.08 825.88 578.08 821.29L578.08 781.04Q578.08 776.33 580.38 773.80Q582.67 771.27 587.03 771.27Q591.27 771.27 593.56 773.80Q595.86 776.33 595.86 781.04L595.86 821.29Q595.86 825.88 593.62 828.41Q591.38 830.94 587.03 830.94M587.03 761.62Q582.09 761.62 579.44 759.33Q576.79 757.03 576.79 752.79Q576.79 748.44 579.44 746.14Q582.09 743.85 587.03 743.85Q591.97 743.85 594.56 746.14Q597.15 748.44 597.15 752.79Q597.15 757.03 594.56 759.33Q591.97 761.62 587.03 761.62M637.75 831.29Q628.34 831.29 621.34 827.59Q614.33 823.88 610.57 817.05Q606.80 810.23 606.80 800.93Q606.80 793.99 608.92 788.45Q611.04 782.92 615.10 779.04Q619.16 775.16 624.93 773.10Q630.69 771.04 637.75 771.04Q641.40 771.04 645.52 771.92Q649.64 772.80 653.64 774.92Q656 775.98 656.88 777.92Q657.76 779.86 657.53 781.92Q657.29 783.98 656.06 785.57Q654.82 787.16 652.94 787.69Q651.05 788.22 648.70 787.04Q646.46 785.75 644.05 785.16Q641.64 784.57 639.52 784.57Q635.99 784.57 633.28 785.69Q630.57 786.81 628.75 788.87Q626.93 790.93 625.93 793.99Q624.93 797.05 624.93 801.05Q624.93 808.82 628.75 813.23Q632.58 817.64 639.52 817.64Q641.64 817.64 643.99 817.11Q646.35 816.58 648.70 815.29Q651.05 814.11 652.94 814.70Q654.82 815.29 655.94 816.88Q657.06 818.47 657.23 820.53Q657.41 822.59 656.53 824.53Q655.64 826.47 653.41 827.53Q649.41 829.53 645.40 830.41Q641.40 831.29 637.75 831.29" fill="#1d4fd7"/>
  <path d="M729.20 831.06Q724.73 831.06 722.37 828.59Q720.02 826.12 720.02 821.64L720.02 762.09L699.19 762.09Q695.54 762.09 693.54 760.09Q691.54 758.09 691.54 754.56Q691.54 750.91 693.54 748.97Q695.54 747.03 699.19 747.03L759.09 747.03Q762.74 747.03 764.74 748.97Q766.74 750.91 766.74 754.56Q766.74 758.09 764.74 760.09Q762.74 762.09 759.09 762.09L738.26 762.09L738.26 821.64Q738.26 826.12 735.97 828.59Q733.67 831.06 729.20 831.06M772.98 831.06Q768.51 831.06 766.16 828.71Q763.80 826.35 763.80 822L763.80 780.22Q763.80 775.86 766.10 773.57Q768.39 771.27 772.51 771.27Q776.75 771.27 778.98 773.57Q781.22 775.86 781.22 780.22L781.22 786.34L780.04 786.34Q781.46 779.27 786.28 775.39Q791.11 771.51 798.76 771.04Q801.70 770.80 803.29 772.51Q804.88 774.21 804.99 778.10Q805.23 781.75 803.52 783.86Q801.82 785.98 797.82 786.45L795.11 786.69Q788.40 787.28 785.16 790.57Q781.93 793.87 781.93 800.11L781.93 822Q781.93 826.35 779.63 828.71Q777.34 831.06 772.98 831.06M831.24 831.29Q824.88 831.29 819.82 828.82Q814.76 826.35 811.94 822.11Q809.11 817.88 809.11 812.58Q809.11 806.23 812.41 802.52Q815.70 798.81 823.12 797.22Q830.53 795.63 842.77 795.63L849.01 795.63L849.01 804.81L842.89 804.81Q836.89 804.81 833.18 805.46Q829.47 806.11 827.89 807.64Q826.30 809.17 826.30 811.88Q826.30 815.17 828.59 817.29Q830.89 819.41 835.24 819.41Q838.65 819.41 841.30 817.82Q843.95 816.23 845.48 813.46Q847.01 810.70 847.01 807.17L847.01 793.63Q847.01 788.45 844.66 786.28Q842.30 784.10 836.65 784.10Q833.48 784.10 829.77 784.87Q826.06 785.63 821.59 787.40Q819 788.57 817 787.93Q815 787.28 813.94 785.57Q812.88 783.86 812.88 781.81Q812.88 779.75 814.06 777.80Q815.23 775.86 817.94 774.92Q823.47 772.68 828.36 771.86Q833.24 771.04 837.36 771.04Q846.42 771.04 852.25 773.68Q858.07 776.33 861.02 781.81Q863.96 787.28 863.96 795.87L863.96 822Q863.96 826.35 861.84 828.71Q859.72 831.06 855.72 831.06Q851.72 831.06 849.54 828.71Q847.36 826.35 847.36 822L847.36 817.64L848.19 818.35Q847.48 822.35 845.19 825.23Q842.89 828.12 839.36 829.71Q835.83 831.29 831.24 831.29M886.20 830.94Q881.85 830.94 879.55 828.41Q877.26 825.88 877.26 821.29L877.26 781.04Q877.26 776.33 879.55 773.80Q881.85 771.27 886.20 771.27Q890.44 771.27 892.73 773.80Q895.03 776.33 895.03 781.04L895.03 821.29Q895.03 825.88 892.79 828.41Q890.56 830.94 886.20 830.94M886.20 761.62Q881.26 761.62 878.61 759.33Q875.96 757.03 875.96 752.79Q875.96 748.44 878.61 746.14Q881.26 743.85 886.20 743.85Q891.15 743.85 893.73 746.14Q896.32 748.44 896.32 752.79Q896.32 757.03 893.73 759.33Q891.15 761.62 886.20 761.62M917.74 831.06Q913.39 831.06 911.09 828.71Q908.80 826.35 908.80 822L908.80 780.22Q908.80 775.86 911.09 773.57Q913.39 771.27 917.51 771.27Q921.75 771.27 923.98 773.57Q926.22 775.86 926.22 780.22L926.22 786.92L924.92 783.04Q927.63 777.27 932.99 774.16Q938.34 771.04 945.17 771.04Q952.11 771.04 956.58 773.68Q961.05 776.33 963.29 781.69Q965.53 787.04 965.53 795.28L965.53 822Q965.53 826.35 963.23 828.71Q960.94 831.06 956.58 831.06Q952.35 831.06 950.05 828.71Q947.76 826.35 947.76 822L947.76 796.10Q947.76 790.10 945.58 787.45Q943.40 784.81 938.93 784.81Q933.28 784.81 929.93 788.34Q926.57 791.87 926.57 797.75L926.57 822Q926.57 831.06 917.74 831.06" fill="#f97316"/>

  <!-- Divider with graduation-cap medallion -->
  <line x1="84" y1="912" x2="450" y2="912" stroke="#2563eb" stroke-width="10" stroke-linecap="round"/>
  <line x1="574" y1="912" x2="940" y2="912" stroke="#f97316" stroke-width="10" stroke-linecap="round"/>
  <circle cx="512" cy="912" r="44" fill="#ffffff" stroke="#2563eb" stroke-width="8"/>
  <path d="M512 892 L550 906 L512 920 L474 906 Z" fill="#1d4fd7"/>
  <path d="M494 913 v9 c0 5 8 8 18 8 s18 -3 18 -8 v-9 l-18 7 Z" fill="#1d4fd7"/>
  <path d="M548 908 v14" stroke="#f97316" stroke-width="4" stroke-linecap="round"/>
  <circle cx="548" cy="925" r="3.4" fill="#f97316"/>
</svg>
